<svg xmlns="http://www.w3.org/2000/svg" xmlns:xlink="http://www.w3.org/1999/xlink" width="395" zoomAndPan="magnify" viewBox="0 0 296.25 60" height="80" preserveAspectRatio="xMidYMid meet" version="1.0"><defs><g/><clipPath id="id1"><path d="M 52 13 L 59.847656 13 L 59.847656 48 L 52 48 Z M 52 13 " clip-rule="nonzero"/></clipPath><clipPath id="id2"><path d="M 28 33 L 42 33 L 42 59.628906 L 28 59.628906 Z M 28 33 " clip-rule="nonzero"/></clipPath><clipPath id="id3"><path d="M 0.292969 0.0742188 L 53 0.0742188 L 53 42 L 0.292969 42 Z M 0.292969 0.0742188 " clip-rule="nonzero"/></clipPath><clipPath id="id4"><path d="M 18 48 L 29 48 L 29 59.628906 L 18 59.628906 Z M 18 48 " clip-rule="nonzero"/></clipPath></defs><path fill="#3a5a6f" d="M 46.390625 28.046875 C 46.390625 20.027344 39.894531 13.53125 31.875 13.53125 C 28.511719 13.53125 25.242188 14.699219 22.644531 16.84375 C 21.675781 17.65625 20.226562 17.523438 19.417969 16.558594 C 18.605469 15.585938 18.730469 14.140625 19.703125 13.324219 C 19.714844 13.320312 19.71875 13.316406 19.730469 13.308594 C 27.867188 6.597656 39.902344 7.761719 46.609375 15.894531 C 49.429688 19.316406 50.972656 23.613281 50.972656 28.046875 C 50.972656 28.632812 50.902344 42.597656 44.480469 52.234375 C 43.785156 53.289062 42.367188 53.59375 41.304688 52.898438 C 40.246094 52.210938 39.945312 50.792969 40.632812 49.730469 C 40.644531 49.714844 40.65625 49.699219 40.664062 49.6875 C 46.304688 41.230469 46.390625 28.171875 46.390625 28.046875 " fill-opacity="1" fill-rule="nonzero"/><g clip-path="url(#id1)"><path fill="#3a5a6f" d="M 55.554688 28.039062 C 55.558594 24.09375 54.570312 20.210938 52.6875 16.738281 C 52.085938 15.625 52.492188 14.234375 53.609375 13.632812 C 54.71875 13.023438 56.109375 13.4375 56.714844 14.546875 C 58.960938 18.6875 60.140625 23.328125 60.140625 28.046875 C 60.019531 34.171875 58.898438 40.238281 56.8125 45.996094 C 56.359375 47.183594 55.03125 47.769531 53.851562 47.3125 C 52.671875 46.859375 52.078125 45.53125 52.535156 44.351562 C 54.402344 39.109375 55.421875 33.605469 55.554688 28.039062 " fill-opacity="1" fill-rule="nonzero"/></g><path fill="#3a5a6f" d="M 28.597656 46.148438 C 27.332031 46.148438 26.304688 45.125 26.304688 43.859375 C 26.304688 43.613281 26.34375 43.367188 26.421875 43.136719 C 28.019531 38.167969 29.082031 33.054688 29.59375 27.867188 C 29.683594 26.664062 30.691406 25.738281 31.894531 25.753906 L 32.039062 25.753906 C 33.308594 25.855469 34.253906 26.957031 34.160156 28.21875 C 33.632812 33.777344 32.492188 39.269531 30.769531 44.585938 C 30.457031 45.519531 29.578125 46.148438 28.597656 46.148438 " fill-opacity="1" fill-rule="nonzero"/><g clip-path="url(#id2)"><path fill="#3a5a6f" d="M 37.25 35.351562 C 37.414062 34.234375 38.359375 33.398438 39.492188 33.386719 C 40.222656 33.394531 40.910156 33.730469 41.351562 34.3125 C 41.71875 34.800781 41.871094 35.414062 41.78125 36.015625 C 40.765625 42.964844 37.582031 53.078125 31.96875 58.691406 C 31.070312 59.585938 29.621094 59.578125 28.726562 58.679688 C 27.839844 57.785156 27.839844 56.34375 28.726562 55.449219 C 33.238281 50.9375 36.261719 42.105469 37.25 35.351562 " fill-opacity="1" fill-rule="nonzero"/></g><path fill="#3a5a6f" d="M 12.78125 28.039062 C 12.777344 25.675781 13.214844 23.332031 14.066406 21.128906 C 14.53125 19.949219 15.859375 19.367188 17.039062 19.824219 C 18.214844 20.285156 18.800781 21.609375 18.34375 22.789062 C 17.695312 24.464844 17.363281 26.246094 17.363281 28.046875 C 17.363281 28.515625 17.289062 39.765625 10.582031 46.46875 C 9.679688 47.363281 8.230469 47.355469 7.34375 46.460938 C 6.449219 45.570312 6.449219 44.121094 7.339844 43.230469 C 12.675781 37.894531 12.78125 28.140625 12.78125 28.039062 " fill-opacity="1" fill-rule="nonzero"/><g clip-path="url(#id3)"><path fill="#3a5a6f" d="M 1.230469 37.117188 C 2.917969 34.402344 3.746094 31.238281 3.613281 28.039062 C 3.613281 12.433594 16.265625 -0.21875 31.875 -0.21875 C 39.359375 -0.21875 46.535156 2.746094 51.832031 8.03125 C 52.730469 8.925781 52.730469 10.375 51.835938 11.269531 C 50.941406 12.167969 49.492188 12.167969 48.601562 11.273438 C 39.339844 2.039062 24.34375 2.058594 15.109375 11.320312 C 10.679688 15.765625 8.195312 21.773438 8.195312 28.046875 C 8.195312 28.921875 8.089844 36.734375 4.472656 40.359375 C 3.574219 41.253906 2.125 41.246094 1.230469 40.347656 C 0.339844 39.453125 0.339844 38.011719 1.230469 37.117188 " fill-opacity="1" fill-rule="nonzero"/></g><g clip-path="url(#id4)"><path fill="#3a5a6f" d="M 23.867188 49.3125 C 24.445312 48.1875 25.824219 47.738281 26.949219 48.3125 C 28.078125 48.890625 28.523438 50.277344 27.945312 51.398438 C 27.945312 51.402344 27.945312 51.402344 27.945312 51.402344 C 26.617188 54.085938 24.882812 56.539062 22.804688 58.691406 C 21.90625 59.585938 20.457031 59.578125 19.5625 58.679688 C 18.671875 57.785156 18.671875 56.34375 19.5625 55.449219 C 21.308594 53.632812 22.757812 51.566406 23.867188 49.3125 " fill-opacity="1" fill-rule="nonzero"/></g><path fill="#3a5a6f" d="M 21.949219 26.515625 C 21.949219 21.03125 26.394531 16.582031 31.878906 16.582031 C 37.359375 16.582031 41.808594 21.03125 41.808594 26.515625 C 41.808594 27.78125 40.78125 28.808594 39.519531 28.808594 C 38.25 28.808594 37.222656 27.78125 37.222656 26.515625 C 37.222656 23.566406 34.832031 21.167969 31.875 21.167969 C 28.921875 21.167969 26.527344 23.566406 26.527344 26.515625 C 26.527344 27.179688 26.417969 42.855469 16.691406 52.582031 C 15.789062 53.476562 14.339844 53.464844 13.453125 52.570312 C 12.5625 51.675781 12.5625 50.234375 13.453125 49.339844 C 21.804688 40.984375 21.949219 26.660156 21.949219 26.515625 " fill-opacity="1" fill-rule="nonzero"/><g fill="#7ae09e" fill-opacity="1"><g transform="translate(68.40287, 46.205376)"><g><path d="M 28.554688 -31.445312 C 25.5625 -33.1875 23.121094 -33.886719 19.882812 -33.886719 C 10.164062 -33.886719 2.34375 -26.113281 2.34375 -16.445312 C 2.34375 -6.976562 10.015625 0.648438 19.535156 0.648438 C 22.773438 0.648438 25.613281 -0.148438 28.554688 -1.84375 L 28.554688 -7.875 C 25.265625 -5.132812 22.871094 -4.085938 19.582031 -4.085938 C 12.707031 -4.085938 7.375 -9.519531 7.375 -16.496094 C 7.375 -23.570312 12.757812 -29.152344 19.535156 -29.152344 C 22.871094 -29.152344 25.414062 -28.105469 28.554688 -25.511719 Z M 28.554688 -31.445312 "/></g></g></g><g fill="#7ae09e" fill-opacity="1"><g transform="translate(99.24818, 46.205376)"><g><path d="M 7.875 -36.328125 L 3.039062 -36.328125 L 3.039062 0 L 7.875 0 Z M 7.875 -36.328125 "/></g></g></g><g fill="#7ae09e" fill-opacity="1"><g transform="translate(110.210977, 46.205376)"><g><path d="M 22.125 -9.320312 L 22.125 -10.464844 C 22.125 -13.207031 21.527344 -15.648438 20.429688 -17.390625 C 18.785156 -19.933594 15.597656 -21.527344 12.160156 -21.527344 C 6.078125 -21.527344 2.042969 -17.09375 2.042969 -10.414062 C 2.042969 -3.738281 6.179688 0.648438 12.40625 0.648438 C 15.050781 0.648438 17.640625 -0.25 19.484375 -1.894531 C 20.582031 -2.789062 21.226562 -3.636719 22.324219 -5.480469 L 18.238281 -7.773438 C 16.292969 -4.632812 15 -3.6875 12.558594 -3.6875 C 9.46875 -3.6875 7.375 -5.878906 7.125 -9.320312 Z M 7.425781 -13.253906 C 8.023438 -15.648438 9.917969 -17.140625 12.257812 -17.140625 C 14.75 -17.140625 16.496094 -15.746094 17.140625 -13.253906 Z M 7.425781 -13.253906 "/></g></g></g><g fill="#7ae09e" fill-opacity="1"><g transform="translate(134.57828, 46.205376)"><g><path d="M 18.488281 -20.980469 L 18.488281 -18.539062 C 16.394531 -20.730469 14.601562 -21.527344 11.910156 -21.527344 C 6.277344 -21.527344 2.042969 -16.84375 2.042969 -10.515625 C 2.042969 -4.085938 6.277344 0.648438 12.058594 0.648438 C 14.601562 0.648438 16.246094 -0.101562 18.488281 -2.191406 L 18.488281 0 L 23.320312 0 L 23.320312 -20.980469 Z M 12.808594 -17.191406 C 16.34375 -17.191406 18.785156 -14.402344 18.785156 -10.414062 C 18.785156 -6.429688 16.34375 -3.6875 12.757812 -3.6875 C 9.367188 -3.6875 6.976562 -6.527344 6.976562 -10.515625 C 6.976562 -14.351562 9.46875 -17.191406 12.808594 -17.191406 Z M 12.808594 -17.191406 "/></g></g></g><g fill="#7ae09e" fill-opacity="1"><g transform="translate(160.988651, 46.205376)"><g><path d="M 3.039062 -20.980469 L 3.039062 0 L 7.875 0 L 7.875 -10.863281 C 7.875 -15 9.117188 -16.894531 11.808594 -16.894531 C 12.808594 -16.894531 13.40625 -16.644531 14.5 -15.847656 L 16.742188 -20.28125 C 15.097656 -21.277344 14.203125 -21.578125 12.707031 -21.578125 C 10.8125 -21.578125 9.667969 -20.980469 7.875 -19.085938 L 7.875 -20.980469 Z M 3.039062 -20.980469 "/></g></g></g><g fill="#678094" fill-opacity="1"><g transform="translate(177.474391, 46.205376)"><g><path d="M 9.019531 -13.503906 L 11.363281 -13.503906 C 15 -13.503906 17.789062 -14.449219 19.734375 -16.34375 C 21.527344 -18.039062 22.625 -20.679688 22.625 -23.371094 C 22.625 -26.410156 21.226562 -29.402344 18.984375 -31.144531 C 16.84375 -32.738281 14.75 -33.238281 9.667969 -33.238281 L 3.988281 -33.238281 L 3.988281 0 L 9.019531 0 Z M 9.019531 -18.136719 L 9.019531 -28.601562 L 10.664062 -28.601562 C 13.253906 -28.601562 14.75 -28.253906 15.945312 -27.40625 C 17.09375 -26.558594 17.789062 -25.066406 17.789062 -23.46875 C 17.789062 -21.875 17.140625 -20.382812 16.09375 -19.484375 C 14.949219 -18.539062 13.453125 -18.136719 10.863281 -18.136719 Z M 9.019531 -18.136719 "/></g></g></g><g fill="#678094" fill-opacity="1"><g transform="translate(201.243721, 46.205376)"><g><path d="M 18.488281 -20.980469 L 18.488281 -18.539062 C 16.394531 -20.730469 14.601562 -21.527344 11.910156 -21.527344 C 6.277344 -21.527344 2.042969 -16.84375 2.042969 -10.515625 C 2.042969 -4.085938 6.277344 0.648438 12.058594 0.648438 C 14.601562 0.648438 16.246094 -0.101562 18.488281 -2.191406 L 18.488281 0 L 23.320312 0 L 23.320312 -20.980469 Z M 12.808594 -17.191406 C 16.34375 -17.191406 18.785156 -14.402344 18.785156 -10.414062 C 18.785156 -6.429688 16.34375 -3.6875 12.757812 -3.6875 C 9.367188 -3.6875 6.976562 -6.527344 6.976562 -10.515625 C 6.976562 -14.351562 9.46875 -17.191406 12.808594 -17.191406 Z M 12.808594 -17.191406 "/></g></g></g><g fill="#678094" fill-opacity="1"><g transform="translate(227.654093, 46.205376)"><g><path d="M 9.667969 -3.9375 L 1.496094 11.410156 L 7.027344 11.410156 L 23.71875 -20.980469 L 18.238281 -20.980469 L 12.257812 -8.917969 L 5.878906 -20.980469 L 0.25 -20.980469 Z M 9.667969 -3.9375 "/></g></g></g><g fill="#678094" fill-opacity="1"><g transform="translate(251.572916, 46.205376)"><g><path d="M 22.125 -9.320312 L 22.125 -10.464844 C 22.125 -13.207031 21.527344 -15.648438 20.429688 -17.390625 C 18.785156 -19.933594 15.597656 -21.527344 12.160156 -21.527344 C 6.078125 -21.527344 2.042969 -17.09375 2.042969 -10.414062 C 2.042969 -3.738281 6.179688 0.648438 12.40625 0.648438 C 15.050781 0.648438 17.640625 -0.25 19.484375 -1.894531 C 20.582031 -2.789062 21.226562 -3.636719 22.324219 -5.480469 L 18.238281 -7.773438 C 16.292969 -4.632812 15 -3.6875 12.558594 -3.6875 C 9.46875 -3.6875 7.375 -5.878906 7.125 -9.320312 Z M 7.425781 -13.253906 C 8.023438 -15.648438 9.917969 -17.140625 12.257812 -17.140625 C 14.75 -17.140625 16.496094 -15.746094 17.140625 -13.253906 Z M 7.425781 -13.253906 "/></g></g></g><g fill="#678094" fill-opacity="1"><g transform="translate(275.940218, 46.205376)"><g><path d="M 3.039062 -20.980469 L 3.039062 0 L 7.875 0 L 7.875 -10.863281 C 7.875 -15 9.117188 -16.894531 11.808594 -16.894531 C 12.808594 -16.894531 13.40625 -16.644531 14.5 -15.847656 L 16.742188 -20.28125 C 15.097656 -21.277344 14.203125 -21.578125 12.707031 -21.578125 C 10.8125 -21.578125 9.667969 -20.980469 7.875 -19.085938 L 7.875 -20.980469 Z M 3.039062 -20.980469 "/></g></g></g></svg>