<?xml version="1.0" encoding="UTF-8" standalone="no"?>
<!-- Created with Inkscape (http://www.inkscape.org/) -->

<svg
   version="1.1"
   id="svg2"
   xml:space="preserve"
   width="390.66666"
   height="80"
   viewBox="0 0 390.66666 80"
   sodipodi:docname="ClearPayer - Landscape Logo - 395x80.eps"
   xmlns:inkscape="http://www.inkscape.org/namespaces/inkscape"
   xmlns:sodipodi="http://sodipodi.sourceforge.net/DTD/sodipodi-0.dtd"
   xmlns="http://www.w3.org/2000/svg"
   xmlns:svg="http://www.w3.org/2000/svg"><defs
     id="defs6"><clipPath
       clipPathUnits="userSpaceOnUse"
       id="clipPath20"><path
         d="m 515.621,113.789 h 77.7305 v 360 H 515.621 Z"
         id="path18" /></clipPath><clipPath
       clipPathUnits="userSpaceOnUse"
       id="clipPath32"><path
         d="m 265.621,1.01953 h 150 v 262.77 h -150 z"
         id="path30" /></clipPath><clipPath
       clipPathUnits="userSpaceOnUse"
       id="clipPath44"><path
         d="M 0,183 V 600 H 526 V 183 Z"
         id="path42" /></clipPath><clipPath
       clipPathUnits="userSpaceOnUse"
       id="clipPath54"><path
         d="m 175.621,1.01953 h 110 v 122.77 h -110 z"
         id="path52" /></clipPath></defs><sodipodi:namedview
     id="namedview4"
     pagecolor="#ffffff"
     bordercolor="#666666"
     borderopacity="1.0"
     inkscape:pageshadow="2"
     inkscape:pageopacity="0.0"
     inkscape:pagecheckerboard="0" /><g
     id="g8"
     inkscape:groupmode="layer"
     inkscape:label="ink_ext_XXXXXX"
     transform="matrix(1.3333333,0,0,-1.3333333,0,80)"><g
       id="g10"
       transform="scale(0.1)"><path
         d="m 458.629,317.109 c 0,80.231 -65,145.27 -145.231,145.27 -33.668,0 -66.41,-11.719 -92.378,-33.16 -9.692,-8.168 -24.18,-6.84 -32.309,2.851 -8.121,9.77 -6.871,24.219 2.848,32.34 0.121,0.078 0.203,0.121 0.281,0.16 81.441,67.192 201.91,55.551 269.019,-25.859 28.243,-34.262 43.672,-77.231 43.672,-121.602 0,-5.898 -0.742,-145.629 -65,-242.0699 -6.91,-10.5899 -21.133,-13.6289 -31.761,-6.6797 -10.579,6.8711 -13.59,21.0508 -6.719,31.7186 0.121,0.152 0.199,0.313 0.32,0.391 56.438,84.652 57.258,215.351 57.258,216.64"
         style="fill:#3a5a6f;fill-opacity:1;fill-rule:nonzero;stroke:none"
         id="path12" /><g
         id="g14"><g
           id="g16"
           clip-path="url(#clipPath20)"><path
             d="m 550.391,317.148 c 0.039,39.493 -9.84,78.364 -28.711,113.122 -6.02,11.14 -1.95,25.039 9.218,31.101 11.133,6.09 25.043,1.949 31.09,-9.18 22.5,-41.453 34.301,-87.851 34.301,-135.082 -1.211,-61.289 -12.461,-122.031 -33.32,-179.687 -4.528,-11.832 -17.809,-17.731 -29.61,-13.16 -11.839,4.566 -17.738,17.847 -13.199,29.648 18.711,52.461 28.899,107.57 30.231,163.238"
             style="fill:#3a5a6f;fill-opacity:1;fill-rule:nonzero;stroke:none"
             id="path22" /></g></g><path
         d="m 280.59,135.898 c -12.66,0 -22.93,10.274 -22.93,22.93 0,2.5 0.352,4.922 1.168,7.262 15.973,49.691 26.602,100.898 31.762,152.82 0.89,12.031 10.93,21.289 23,21.129 h 1.449 C 327.73,339.02 337.23,328.012 336.25,315.352 330.98,259.73 319.57,204.77 302.34,151.559 c -3.121,-9.368 -11.91,-15.661 -21.75,-15.661"
         style="fill:#3a5a6f;fill-opacity:1;fill-rule:nonzero;stroke:none"
         id="path24" /><g
         id="g26"><g
           id="g28"
           clip-path="url(#clipPath32)"><path
             d="m 367.191,243.98 c 1.637,11.18 11.09,19.54 22.418,19.649 7.301,-0.039 14.18,-3.43 18.629,-9.25 3.672,-4.891 5.203,-11.02 4.301,-17.039 -10.16,-69.57 -42.027,-170.7814 -98.199,-226.9494 -8.988,-8.94138 -23.52,-8.91013 -32.461,0.1211 -8.867,8.9375 -8.867,23.3985 0,32.3399 45.152,45.1601 75.391,133.5584 85.312,201.1284"
             style="fill:#3a5a6f;fill-opacity:1;fill-rule:nonzero;stroke:none"
             id="path34" /></g></g><path
         d="m 122.301,317.148 c -0.071,23.672 4.34,47.114 12.859,69.18 4.641,11.832 17.93,17.652 29.719,13.051 11.762,-4.609 17.66,-17.859 13.09,-29.649 -6.52,-16.8 -9.848,-34.609 -9.848,-52.621 0,-4.73 -0.742,-117.308 -67.851,-184.379 -9.02,-8.941 -23.5083,-8.902 -32.4184,0.04 -8.9414,8.949 -8.9414,23.441 -0.043,32.351 53.4024,53.43 54.4924,151.051 54.4924,152.027"
         style="fill:#3a5a6f;fill-opacity:1;fill-rule:nonzero;stroke:none"
         id="path36" /><g
         id="g38"><g
           id="g40"
           clip-path="url(#clipPath44)"><path
             d="M 6.67969,226.328 C 23.5508,253.48 31.8789,285.121 30.5508,317.148 30.5508,473.359 157.191,600 313.398,600 c 74.883,0 146.723,-29.691 199.723,-82.578 8.988,-8.942 8.988,-23.442 0.039,-32.383 -8.941,-9.019 -23.43,-9.019 -32.379,-0.078 -92.691,92.418 -242.769,92.23 -335.191,-0.473 -44.301,-44.449 -69.1798,-104.609 -69.1798,-167.379 0,-8.789 -1.1016,-86.988 -37.2696,-123.238 -9.0195,-8.949 -23.5195,-8.91 -32.46091,0.109 -8.91016,8.95 -8.91016,23.399 0,32.348"
             style="fill:#3a5a6f;fill-opacity:1;fill-rule:nonzero;stroke:none"
             id="path46" /></g></g><g
         id="g48"><g
           id="g50"
           clip-path="url(#clipPath54)"><path
             d="m 233.238,104.262 c 5.782,11.25 19.571,15.777 30.864,10 11.289,-5.782 15.738,-19.6526 9.957,-30.8636 0,-0.0781 0,-0.0781 0,-0.0781 C 260.781,56.4805 243.398,31.9492 222.621,10.3906 213.59,1.44922 199.102,1.48047 190.16,10.5117 c -8.91,8.9375 -8.91,23.3985 0,32.3399 17.461,18.1679 31.949,38.8281 43.078,61.4104"
             style="fill:#3a5a6f;fill-opacity:1;fill-rule:nonzero;stroke:none"
             id="path56" /></g></g><path
         d="m 214.02,332.422 c 0,54.879 44.531,99.418 99.421,99.418 54.84,0 99.368,-44.539 99.368,-99.418 0,-12.652 -10.27,-22.934 -22.93,-22.934 -12.688,0 -22.969,10.282 -22.969,22.934 0,29.527 -23.941,53.519 -53.512,53.519 -29.527,0 -53.519,-23.992 -53.519,-53.519 0,-6.641 -1.129,-163.551 -98.469,-260.9025 -8.988,-8.9414 -23.519,-8.8203 -32.39,0.1211 -8.899,8.9492 -8.899,23.3985 0,32.3394 83.558,83.641 85,227 85,228.442"
         style="fill:#3a5a6f;fill-opacity:1;fill-rule:nonzero;stroke:none"
         id="path58" /><path
         d="m 964.77,450.039 c -29.93,17.461 -54.379,24.449 -86.801,24.449 -97.231,0 -175.547,-77.808 -175.547,-174.566 0,-94.762 76.797,-171.051 172.066,-171.051 32.422,0 60.864,7.969 90.282,24.918 v 60.352 C 931.84,186.719 907.891,176.25 875,176.25 c -68.828,0 -122.191,54.371 -122.191,124.18 0,70.82 53.871,126.679 121.679,126.679 33.403,0 58.871,-10.468 90.282,-36.41 z"
         style="fill:#7ae09e;fill-opacity:1;fill-rule:nonzero;stroke:none"
         id="path60" /><path
         d="m 1018.12,135.359 h 48.3594 v 363.59 H 1018.12 Z"
         style="fill:#7ae09e;fill-opacity:1;fill-rule:nonzero;stroke:none"
         id="path62" /><path
         d="m 1318.87,228.629 v 11.449 c 0,27.422 -5.98,51.871 -16.96,69.332 -16.48,25.43 -48.39,41.41 -82.81,41.41 -60.82,0 -101.25,-44.41 -101.25,-111.25 0,-66.8 41.41,-110.699 103.75,-110.699 26.45,0 52.38,8.981 70.82,25.43 10.98,8.98 17.46,17.461 28.44,35.898 l -40.9,22.961 c -19.45,-31.441 -32.42,-40.89 -56.87,-40.89 -30.9,0 -51.84,21.949 -54.34,56.359 z m -147.15,39.383 c 6.01,23.937 24.96,38.898 48.4,38.898 24.92,0 42.38,-13.941 48.86,-38.898 z"
         style="fill:#7ae09e;fill-opacity:1;fill-rule:nonzero;stroke:none"
         id="path64" /><path
         d="m 1526.33,345.309 v -24.411 c -20.94,21.911 -38.91,29.922 -65.86,29.922 -56.33,0 -98.75,-46.91 -98.75,-110.23 0,-64.34 42.42,-111.719 100.27,-111.719 25.43,0 41.88,7.5 64.34,28.43 v -21.949 h 48.36 v 209.957 z m -56.88,-37.887 c 35.43,0 59.85,-27.934 59.85,-67.852 0,-39.879 -24.42,-67.3 -60.32,-67.3 -33.94,0 -57.89,28.429 -57.89,68.32 0,38.39 24.96,66.832 58.36,66.832 z"
         style="fill:#7ae09e;fill-opacity:1;fill-rule:nonzero;stroke:none"
         id="path66" /><path
         d="M 1636.05,345.309 V 135.352 h 48.36 v 108.707 c 0,41.41 12.47,60.351 39.42,60.351 9.96,0 15.97,-2.5 26.91,-10.461 l 22.46,44.371 c -16.44,10 -25.43,12.969 -40.39,12.969 -18.94,0 -30.43,-5.98 -48.4,-24.918 v 18.938 z"
         style="fill:#7ae09e;fill-opacity:1;fill-rule:nonzero;stroke:none"
         id="path68" /><path
         d="m 1860.9,270.512 h 23.44 c 36.4,0 64.33,9.488 83.78,28.437 17.97,16.949 28.95,43.391 28.95,70.313 0,30.429 -13.98,60.347 -36.45,77.808 -21.44,15.942 -42.38,20.942 -93.24,20.942 h -56.87 v -332.66 h 50.39 z m 0,46.367 v 104.762 h 16.44 c 25.94,0 40.9,-3.52 52.89,-11.993 11.45,-8.476 18.44,-23.437 18.44,-39.378 0,-15.969 -6.48,-30.93 -16.95,-39.918 -11.49,-9.454 -26.45,-13.473 -52.38,-13.473 z"
         style="fill:#678094;fill-opacity:1;fill-rule:nonzero;stroke:none"
         id="path70" /><path
         d="m 2193.55,345.309 v -24.411 c -20.93,21.911 -38.9,29.922 -65.85,29.922 -56.33,0 -98.75,-46.91 -98.75,-110.23 0,-64.34 42.42,-111.719 100.27,-111.719 25.43,0 41.87,7.5 64.33,28.43 v -21.949 h 48.36 v 209.957 z m -56.87,-37.887 c 35.43,0 59.84,-27.934 59.84,-67.852 0,-39.879 -24.41,-67.3 -60.31,-67.3 -33.94,0 -57.89,28.429 -57.89,68.32 0,38.39 24.96,66.832 58.36,66.832 z"
         style="fill:#678094;fill-opacity:1;fill-rule:nonzero;stroke:none"
         id="path72" /><path
         d="m 2369.61,174.77 -81.8,-153.6411 h 55.35 l 167.07,324.1801 h -54.84 l -59.84,-120.7 -63.83,120.7 h -56.37 z"
         style="fill:#678094;fill-opacity:1;fill-rule:nonzero;stroke:none"
         id="path74" /><path
         d="m 2733.67,228.629 v 11.449 c 0,27.422 -5.97,51.871 -16.95,69.332 -16.49,25.43 -48.4,41.41 -82.81,41.41 -60.82,0 -101.25,-44.41 -101.25,-111.25 0,-66.8 41.4,-110.699 103.75,-110.699 26.44,0 52.38,8.981 70.82,25.43 10.97,8.98 17.46,17.461 28.43,35.898 l -40.89,22.961 c -19.46,-31.441 -32.43,-40.89 -56.88,-40.89 -30.9,0 -51.84,21.949 -54.34,56.359 z m -147.15,39.383 c 6.02,23.937 24.96,38.898 48.4,38.898 24.92,0 42.38,-13.941 48.87,-38.898 z"
         style="fill:#678094;fill-opacity:1;fill-rule:nonzero;stroke:none"
         id="path76" /><path
         d="M 2786.52,345.309 V 135.352 h 48.36 v 108.707 c 0,41.41 12.46,60.351 39.42,60.351 9.96,0 15.97,-2.5 26.91,-10.461 l 22.46,44.371 c -16.44,10 -25.43,12.969 -40.39,12.969 -18.94,0 -30.43,-5.98 -48.4,-24.918 v 18.938 z"
         style="fill:#678094;fill-opacity:1;fill-rule:nonzero;stroke:none"
         id="path78" /></g></g></svg>
